<?xml version="1.0" encoding="utf-8"?>
<!-- Generator: Adobe Illustrator 25.2.1, SVG Export Plug-In . SVG Version: 6.00 Build 0)  -->
<svg version="1.1" id="图层_1" xmlns="http://www.w3.org/2000/svg" xmlns:xlink="http://www.w3.org/1999/xlink" x="0px" y="0px"
	 viewBox="0 0 2100 3350" style="enable-background:new 0 0 2100 3350;" xml:space="preserve">
<style type="text/css">
	.st0{fill:#F4F4F4;stroke:#171717;stroke-width:4.8839;stroke-linecap:round;stroke-linejoin:round;stroke-miterlimit:10;}
	.st1{fill:#B2B2B2;stroke:#171717;stroke-width:4.8839;stroke-linecap:round;stroke-linejoin:round;stroke-miterlimit:10;}
	.st2{fill:#545454;stroke:#171717;stroke-width:4.8839;stroke-linecap:round;stroke-linejoin:round;stroke-miterlimit:10;}
	.st3{fill:#E0E0E0;stroke:#171717;stroke-width:4.8839;stroke-linecap:round;stroke-linejoin:round;stroke-miterlimit:10;}
	.st4{fill:#C4C2C2;stroke:#171717;stroke-width:4.8839;stroke-linecap:round;stroke-linejoin:round;stroke-miterlimit:10;}
	.st5{fill:none;stroke:#171717;stroke-width:4.8839;stroke-linecap:round;stroke-linejoin:round;stroke-miterlimit:10;}
	.st6{fill:#F7F7F7;stroke:#171717;stroke-width:4.8839;stroke-linecap:round;stroke-linejoin:round;stroke-miterlimit:10;}
	.st7{fill:#17F700;stroke:#171717;stroke-width:4.8839;stroke-linecap:round;stroke-linejoin:round;stroke-miterlimit:10;}
</style>
<g>
	<path class="st0" d="M1657.5,43.1l-473.4,89l-117.9,22.2l116.1,35.7h0L1579.4,312l62.9,19.3l162.9,574.2l-162.9-61l-21.2-8
		l21.2,106.1l6.7,33.3l408.6,160L1657.5,43.1z M1579.4,250.3l-280.6-84l280.6-56.7l43.6,153.7L1579.4,250.3z"/>
	<polygon class="st1" points="1579.4,109.7 1579.4,250.3 1298.7,166.4 	"/>
	<polygon class="st2" points="1623,263.4 1579.4,250.3 1579.4,109.7 	"/>
	<polygon class="st3" points="942.6,699.2 942.6,2870.2 849.4,2833.7 42.5,2517.7 42.5,346.7 149.3,388.5 849.4,662.7 	"/>
	<polygon class="st2" points="959.7,588.6 959.7,2877 942.6,2870.2 942.6,699.2 	"/>
	<polygon class="st3" points="1003.4,528.9 1003.4,2894 959.7,2877 959.7,588.6 849.4,547.3 849.4,523.9 	"/>
	<polygon class="st2" points="1038.8,265.1 1038.8,2907.9 1003.4,2894 1003.4,528.9 	"/>
	<polygon class="st2" points="1648.9,975.9 1648.9,3146.9 1642.2,3144.3 1621,3136 1621,836.5 1642.2,942.6 	"/>
	<polygon class="st3" points="1459.1,901.5 1459.1,3072.6 1128,2942.8 1106.6,2934.5 1106.6,763.5 1128,771.8 1278.6,830.8 	"/>
	<polygon class="st0" points="1405.9,436 1459.1,901.5 1278.6,830.8 1128,771.8 1106.6,763.5 1114,646.4 1128,651.7 1275.3,706.9 
		1268,430.8 1128,425.5 1132.4,355.8 1528.1,372.3 1541.9,441.2 	"/>
	<polygon class="st4" points="1541.9,441.2 1541.9,3105 1459.1,3072.6 1459.1,901.5 1405.9,436 	"/>
	<line class="st5" x1="1066.2" y1="2918.6" x2="1058.3" y2="2915.6"/>
	<polygon class="st0" points="909.6,259.1 1038.8,265.1 1003.4,528.9 849.4,523.9 874,415.9 456.8,400.1 849.4,547.3 959.7,588.6 
		942.6,699.2 849.4,662.7 149.3,388.5 42.5,346.7 199.9,317.1 940.9,177.8 1066.2,216.9 492.4,329.2 889.9,345.7 	"/>
	<polygon class="st1" points="874,415.9 849.4,523.9 849.4,547.3 456.8,400.1 	"/>
	<polygon class="st1" points="1066.2,216.9 1066.2,2918.6 1038.8,2907.9 1038.8,265.1 909.6,259.1 889.9,345.7 492.4,329.2 	"/>
	<polygon class="st3" points="2057.5,1135.9 2057.5,3306.9 1648.9,3146.9 1648.9,975.9 	"/>
	<polygon class="st2" points="1805.1,905.5 1642.2,844.4 1642.2,331.3 	"/>
	<polygon class="st4" points="1275.3,706.9 1128,651.7 1128,425.5 1268,430.8 	"/>
	<polygon class="st1" points="1642.2,331.3 1642.2,844.4 1621,836.5 1621,3136 1579.4,3119.7 1541.9,3105 1541.9,441.2 
		1528.1,372.3 1132.4,355.8 1128,425.5 1128,651.7 1114,646.4 1106.6,763.5 1106.6,2934.5 1066.2,2918.6 1066.2,154.2 1182.2,189.9 
		1182.3,189.9 1579.4,312 	"/>
</g>
<g>
	<g>
		<polygon class="st6" points="250.4,518.7 250.4,664.6 235.6,658.8 107.8,608.7 107.8,462.8 124.8,469.5 235.6,512.9 		"/>
		<polygon class="st7" points="458.3,597.5 458.3,743.4 443.5,737.6 315.7,687.5 315.7,541.6 332.6,548.3 443.5,591.7 		"/>
		<polygon class="st6" points="666.1,676.3 666.1,822.2 651.4,816.4 523.5,766.3 523.5,620.4 540.5,627.1 651.4,670.5 		"/>
		<polygon class="st7" points="859.2,753.5 859.2,895.2 846,889.6 731.4,840.9 731.4,699.2 746.6,705.7 846,747.9 		"/>
		<polygon class="st6" points="250.4,864.5 250.4,1010.4 235.6,1004.6 107.8,954.6 107.8,808.7 124.8,815.3 235.6,858.7 		"/>
		<polygon class="st6" points="458.3,943.3 458.3,1089.2 443.5,1083.4 315.7,1033.3 315.7,887.5 332.6,894.1 443.5,937.5 		"/>
		<polygon class="st6" points="666.1,1022.1 666.1,1168 651.4,1162.2 523.5,1112.1 523.5,966.3 540.5,972.9 651.4,1016.3 		"/>
		<polygon class="st6" points="874,1100.9 874,1246.8 859.2,1241 731.4,1190.9 731.4,1045.1 748.3,1051.7 859.2,1095.1 		"/>
		<polygon class="st6" points="250.4,1210.3 250.4,1356.2 235.6,1350.4 107.8,1300.4 107.8,1154.5 124.8,1161.1 235.6,1204.6 		"/>
		<polygon class="st7" points="458.3,1289.1 458.3,1435 443.5,1429.2 315.7,1379.2 315.7,1233.3 332.6,1239.9 443.5,1283.4 		"/>
		<polygon class="st6" points="666.1,1367.9 666.1,1513.8 651.4,1508 523.5,1458 523.5,1312.1 540.5,1318.7 651.4,1362.1 		"/>
		<polygon class="st7" points="874,1446.7 874,1592.6 859.2,1586.8 731.4,1536.8 731.4,1390.9 748.3,1397.5 859.2,1440.9 		"/>
		<polygon class="st6" points="250.4,1556.2 250.4,1702 235.6,1696.3 107.8,1646.2 107.8,1500.3 124.8,1506.9 235.6,1550.4 		"/>
		<polygon class="st6" points="458.3,1635 458.3,1780.8 443.5,1775.1 315.7,1725 315.7,1579.1 332.6,1585.7 443.5,1629.2 		"/>
		<polygon class="st7" points="666.1,1713.8 666.1,1859.6 651.4,1853.9 523.5,1803.8 523.5,1657.9 540.5,1664.5 651.4,1708 		"/>
		<polygon class="st6" points="874,1792.6 874,1938.4 859.2,1932.7 731.4,1882.6 731.4,1736.7 748.3,1743.3 859.2,1786.8 		"/>
		<polygon class="st7" points="250.4,1902 250.4,2047.9 235.6,2042.1 107.8,1992 107.8,1846.1 124.8,1852.8 235.6,1896.2 		"/>
		<polygon class="st7" points="458.3,1980.8 458.3,2126.7 443.5,2120.9 315.7,2070.8 315.7,1924.9 332.6,1931.6 443.5,1975 		"/>
		<polygon class="st6" points="666.1,2059.6 666.1,2205.5 651.4,2199.7 523.5,2149.6 523.5,2003.7 540.5,2010.4 651.4,2053.8 		"/>
		<polygon class="st6" points="874,2138.4 874,2284.3 859.2,2278.5 731.4,2228.4 731.4,2082.5 748.3,2089.2 859.2,2132.6 		"/>
		<polygon class="st6" points="250.4,2247.8 250.4,2393.7 235.6,2387.9 107.8,2337.8 107.8,2192 124.8,2198.6 235.6,2242 		"/>
		<polygon class="st6" points="458.3,2326.6 458.3,2472.5 443.5,2466.7 315.7,2416.6 315.7,2270.8 332.6,2277.4 443.5,2320.8 		"/>
		<polygon class="st6" points="666.1,2405.4 666.1,2551.3 651.4,2545.5 523.5,2495.4 523.5,2349.6 540.5,2356.2 651.4,2399.6 		"/>
		<polygon class="st7" points="874,2484.2 874,2630.1 859.2,2624.3 731.4,2574.2 731.4,2428.4 748.3,2435 859.2,2478.4 		"/>
	</g>
	<g>
		<polygon class="st7" points="1333.8,933.7 1333.8,1075.4 1320.5,1069.8 1206,1021.2 1206,879.5 1221.1,885.9 1320.5,928.1 		"/>
		<polygon class="st6" points="1348.5,1281.1 1348.5,1427 1333.8,1421.2 1206,1371.2 1206,1225.3 1222.9,1231.9 1333.8,1275.3 		"/>
		<polygon class="st7" points="1348.5,1626.9 1348.5,1772.8 1333.8,1767 1206,1717 1206,1571.1 1222.9,1577.7 1333.8,1621.2 		"/>
		<polygon class="st7" points="1348.5,1972.8 1348.5,2118.7 1333.8,2112.9 1206,2062.8 1206,1916.9 1222.9,1923.6 1333.8,1967 		"/>
		<polygon class="st6" points="1348.5,2318.6 1348.5,2464.5 1333.8,2458.7 1206,2408.6 1206,2262.8 1222.9,2269.4 1333.8,2312.8 		
			"/>
		<polygon class="st6" points="1348.5,2664.4 1348.5,2810.3 1333.8,2804.5 1206,2754.5 1206,2608.6 1222.9,2615.2 1333.8,2658.6 		
			"/>
	</g>
	<g>
		<polygon class="st6" points="1907.6,1147.1 1907.6,1288.8 1894.3,1283.2 1779.7,1234.5 1779.7,1092.8 1794.9,1099.3 
			1894.3,1141.5 		"/>
		<polygon class="st7" points="1922.3,1494.5 1922.3,1640.4 1907.6,1634.6 1779.7,1584.5 1779.7,1438.7 1796.7,1445.3 
			1907.6,1488.7 		"/>
		<polygon class="st6" points="1922.3,1840.3 1922.3,1986.2 1907.6,1980.4 1779.7,1930.4 1779.7,1784.5 1796.7,1791.1 
			1907.6,1834.5 		"/>
		<polygon class="st6" points="1922.3,2186.2 1922.3,2332 1907.6,2326.3 1779.7,2276.2 1779.7,2130.3 1796.7,2136.9 1907.6,2180.4 
					"/>
		<polygon class="st7" points="1922.3,2532 1922.3,2677.9 1907.6,2672.1 1779.7,2622 1779.7,2476.1 1796.7,2482.8 1907.6,2526.2 		
			"/>
		<polygon class="st6" points="1922.3,2877.8 1922.3,3023.7 1907.6,3017.9 1779.7,2967.8 1779.7,2822 1796.7,2828.6 1907.6,2872 		
			"/>
	</g>
</g>
</svg>
